# xmcd
#
# Track frame offsets: 
#        150
#        13300
#        25075
#        37750
#        49250
#        58300
#        69150
#        78300
#        90550
#        101450
#        112275
#        123675
#        135825
#        149175
#        159750
#        169300
#        182800
#        195200
#        209225
#        220525
#        230475
#        241600
#        251475
#        260500
#
# Disc length: 3641 seconds
#
# Revision: 3
# Processed by: cddbd v1.5.2PL0 Copyright (c) Steve Scherf et al.
# Submitted via: ExactAudioCopyFreeDBPlugin 1.0
#
DISCID=510e3718
DTITLE=Various Artist - This Is Northern Soul
DYEAR=1900
DGENRE=Northern Soul
TTITLE0=Arin Demain - Silent Treatment
TTITLE1=Imaginations - Strange Neighbourhood
TTITLE2=Connie Clarke - My Sugar Baby
TTITLE3=Checkerboard Squares - Double Cookin
TTITLE4=Spyder Turner - I've Got To Get Myself Together
TTITLE5=Chandlers - Your Love Makes Me Lonely
TTITLE6=Bobby Smith - Walk On Into My Heart
TTITLE7=Kurt Harris - Emperor Of My Baby's Heart
TTITLE8=Dickie Wonder - Nobody Knows
TTITLE9=Empires - You're On Top Girl
TTITLE10=Servicemen - Are You Angry
TTITLE11=Mamie Galore - No Right To Cry
TTITLE12=Bobby Treetop - So Sweet, So Satisfying
TTITLE13=Silhouettes - Not Me Baby
TTITLE14=Calvin Grayson - Love's Just Begun
TTITLE15=Little Joe Cook - Falling In Love With You Baby
TTITLE16=Soul Communicators - These Lonely Nights
TTITLE17=Doni Burdick - Bari Track
TTITLE18=Frank Dell - He Broke Your Game Wide Open
TTITLE19=Lee Andrews - I've Had It
TTITLE20=Sam Moultrie - I'll Always Love You
TTITLE21=Sam Ward - Sister Lee
TTITLE22=James Bounty - Prove Yourself A Lady
TTITLE23=Saxie Russell - Psychadelic Soul
EXTD=
EXTT0=
EXTT1=
EXTT2=
EXTT3=
EXTT4=
EXTT5=
EXTT6=
EXTT7=
EXTT8=
EXTT9=
EXTT10=
EXTT11=
EXTT12=
EXTT13=
EXTT14=
EXTT15=
EXTT16=
EXTT17=
EXTT18=
EXTT19=
EXTT20=
EXTT21=
EXTT22=
EXTT23=
PLAYORDER=
